<?xml version="1.0"?>
<svg width="300" height="180" xmlns="http://www.w3.org/2000/svg" xmlns:svg="http://www.w3.org/2000/svg">
 <g class="layer">
  <title>Layer 1</title>
  <path d="m26,35c0,3.89 0,4.65 0,5.45c0,0.84 0,1.72 0,2.64c0,0.97 0,1.47 0,2.53c0,0.55 0,2.32 0,2.95c0,0.63 0,1.26 0,2.51c0,0.6 0,1.18 0,2.74c0,0.85 0,1.58 0,2.5c0,1.23 0,1.88 0,2.89c0,0.96 0,1.91 0,2.8c0,0.8 0,1.7 0,2.6c0,0.9 0,1.8 0,2.7c0,0.86 0,1.72 0,2.7l0.01,0.79l0.07,0.73" fill="none" id="svg_3" stroke="null" stroke-dasharray="null" stroke-linecap="null" stroke-linejoin="null" stroke-opacity="null"/>
  <polyline fill="none" id="svg_4" opacity="0.5" points="277,43 " stroke="null" stroke-dasharray="null" stroke-linecap="round" stroke-linejoin="null" stroke-opacity="null"/>
  <polyline fill="none" id="svg_5" opacity="0.5" points="274,108 " stroke="null" stroke-dasharray="null" stroke-linecap="round" stroke-linejoin="null" stroke-opacity="null"/>
  <polyline fill="none" id="svg_6" opacity="0.5" points="274,108 " stroke="null" stroke-dasharray="null" stroke-linecap="round" stroke-linejoin="null" stroke-opacity="null"/>
  <polyline fill="none" id="svg_7" opacity="0.5" points="207,140 " stroke="null" stroke-dasharray="null" stroke-linecap="round" stroke-linejoin="null" stroke-opacity="null"/>
  <polyline fill="none" id="svg_8" opacity="0.5" points="168,188 " stroke="null" stroke-dasharray="null" stroke-linecap="round" stroke-linejoin="null" stroke-opacity="null"/>
  <polyline fill="none" id="svg_9" opacity="0.5" points="142,328 " stroke="null" stroke-dasharray="null" stroke-linecap="round" stroke-linejoin="null" stroke-opacity="null"/>
  <rect fill="#000000" height="0" id="svg_10" opacity="0.5" stroke="null" stroke-dasharray="null" stroke-linecap="null" stroke-linejoin="null" stroke-opacity="null" width="0" x="290" y="113"/>
  <rect fill="#000000" height="0" id="svg_11" opacity="0.5" stroke="null" stroke-dasharray="null" stroke-linecap="null" stroke-linejoin="null" stroke-opacity="null" width="0" x="160" y="159"/>
  <rect fill="#000000" height="0" id="svg_12" opacity="0.5" stroke="null" stroke-dasharray="null" stroke-linecap="null" stroke-linejoin="null" stroke-opacity="null" width="0" x="161" y="93"/>
  <rect fill="#000000" height="0" id="svg_13" opacity="0.5" stroke="null" stroke-dasharray="null" stroke-linecap="null" stroke-linejoin="null" stroke-opacity="null" width="0" x="142" y="87"/>
  <text fill="#000000" font-family="Helvetica" font-size="24" id="svg_1" stroke="#000000" stroke-width="0" text-anchor="middle" transform="matrix(7.10784, 0, 0, 6.13069, -1407.29, -526.032)" x="214.31" xml:space="preserve" y="140.81">KN</text>
  <line fill="none" id="svg_2" stroke="#000000" stroke-width="5" x1="16" x2="15" y1="43" y2="142.26"/>
  <line fill="none" id="svg_14" stroke="#000000" stroke-width="5" x1="16.83" x2="97" y1="101.3" y2="33"/>
  <line fill="none" fill-opacity="null" id="svg_15" stroke="#000000" stroke-dasharray="null" stroke-linecap="null" stroke-linejoin="null" stroke-opacity="null" stroke-width="5" x1="70" x2="38" y1="141" y2="85"/>
  <line fill="none" fill-opacity="null" id="svg_16" stroke="#000000" stroke-dasharray="null" stroke-linecap="null" stroke-linejoin="null" stroke-opacity="null" stroke-width="5" transform="rotate(13.5666, 84.2363, 88.47)" x1="84.24" x2="84.24" y1="33.37" y2="143.57"/>
  <line fill="none" fill-opacity="null" id="svg_17" stroke="#000000" stroke-dasharray="null" stroke-linecap="null" stroke-linejoin="null" stroke-opacity="null" stroke-width="5" transform="rotate(-39.8091, 43.5381, 140.038)" x1="66.07" x2="21.01" y1="158.66" y2="121.41"/>
  <line fill="none" fill-opacity="null" id="svg_18" stroke="#000000" stroke-dasharray="null" stroke-linecap="null" stroke-linejoin="null" stroke-opacity="null" stroke-width="5" transform="rotate(-98.2489, 55.6387, 37.919)" x1="55.64" x2="55.64" y1="-4.45" y2="80.29"/>
 </g>

</svg>